# xmcd
# Copyright (C) 1995-1998 Ti Kan
#
# Track frame offsets:
#       150
#       12900
#       28170
#       41312
#       54714
#       67704
#       82802
#       99057
#       113988
#       130527
#       146111
#       161797
#       176694
#       192459
#       207165
#       220733
#       234944
#       249856
#
# Disc length: 3523 seconds
#
# Revision: 0
# Processed by: cddbd v1.5.2PL0 Copyright (c) Steve Scherf et al.
# Submitted via: CD-Transfer v1.0
#
DISCID=e70dc112
DTITLE=Alpentrio Tirol - 
DYEAR=1900
DGENRE=
TTITLE0=I bin der gleiche Tepp
TTITLE1=Das Geheimnis der Johannisnacht
TTITLE2=Für dich
TTITLE3=Und ein Engel geht durch die Hölle
TTITLE4=In der Nacht des Kometen
TTITLE5=Die ganz kleinen Träume
TTITLE6=Herz der Heimat
TTITLE7=Wie Samt und Seide
TTITLE8=Und wenn Tirol am Nordpol wär'
TTITLE9=Oh mi amor - Das Leben hat mich wieder
TTITLE10=Mi Corazon
TTITLE11=Drunt'n im Tal liegt der Nebel
TTITLE12=Alle Träume zum Himmel
TTITLE13=Tyrolean Boy
TTITLE14=Liebeserinnerung
TTITLE15=Lei Lo La
TTITLE16=Ave Maria no morro
TTITLE17=Hawaii ist kein Tirolerland
EXTD=
EXTT0=
EXTT1=
EXTT2=
EXTT3=
EXTT4=
EXTT5=
EXTT6=
EXTT7=
EXTT8=
EXTT9=
EXTT10=
EXTT11=
EXTT12=
EXTT13=
EXTT14=
EXTT15=
EXTT16=
EXTT17=
PLAYORDER=
